# Blender 4.2.0
# www.blender.org
mtllib lampara2.mtl
o Cube.026
v 4.053601 0.122431 15.455163
v 4.053601 1.622432 15.455163
v 4.053601 0.122431 15.555163
v 4.053601 1.622432 15.555163
v 3.953601 0.122431 15.455163
v 3.953601 1.622432 15.455163
v 3.953601 0.122431 15.555163
v 3.953601 1.622432 15.555163
vn -0.0000 -1.0000 -0.0000
vn -0.0000 -0.0000 1.0000
vn -1.0000 -0.0000 -0.0000
vn -0.0000 1.0000 -0.0000
vn 1.0000 -0.0000 -0.0000
vn -0.0000 -0.0000 -1.0000
vt 0.625000 0.500000
vt 0.875000 0.500000
vt 0.875000 0.750000
vt 0.625000 0.750000
vt 0.375000 0.750000
vt 0.625000 1.000000
vt 0.375000 1.000000
vt 0.375000 0.000000
vt 0.625000 0.000000
vt 0.625000 0.250000
vt 0.375000 0.250000
vt 0.125000 0.500000
vt 0.375000 0.500000
vt 0.125000 0.750000
s 0
usemtl Material.033
f 1/1/1 3/4/1 7/3/1 5/2/1
f 4/5/2 8/7/2 7/6/2 3/4/2
f 8/8/3 6/11/3 5/10/3 7/9/3
f 6/12/4 8/14/4 4/5/4 2/13/4
f 2/13/5 4/5/5 3/4/5 1/1/5
f 6/11/6 2/13/6 1/1/6 5/10/6
o Cube.027
v 4.137985 1.916279 15.384671
v 4.263601 1.273679 15.255163
v 4.136678 1.893679 15.659707
v 4.263601 1.273679 15.755163
v 3.837475 1.901224 15.377542
v 3.743601 1.273679 15.255163
v 3.846123 1.893679 15.662561
v 3.743601 1.273679 15.755163
vn -0.0258 0.9982 0.0541
vn 0.0035 0.1500 0.9887
vn -0.9878 0.1552 0.0124
vn -0.0000 -1.0000 -0.0000
vn 0.9806 0.1959 0.0074
vn 0.0050 0.1946 -0.9809
vt 0.625000 0.500000
vt 0.875000 0.500000
vt 0.875000 0.750000
vt 0.625000 0.750000
vt 0.375000 0.750000
vt 0.625000 1.000000
vt 0.375000 1.000000
vt 0.375000 0.000000
vt 0.625000 0.000000
vt 0.625000 0.250000
vt 0.375000 0.250000
vt 0.125000 0.500000
vt 0.375000 0.500000
vt 0.125000 0.750000
s 0
usemtl Material.034
f 9/15/7 13/16/7 15/17/7 11/18/7
f 12/19/8 11/18/8 15/20/8 16/21/8
f 16/22/9 15/23/9 13/24/9 14/25/9
f 14/26/10 10/27/10 12/19/10 16/28/10
f 10/27/11 9/15/11 11/18/11 12/19/11
f 14/25/12 13/24/12 9/15/12 10/27/12
o Cube.028
v 4.430008 0.106610 15.110116
v 4.430008 0.046610 15.110116
v 4.430008 0.106610 15.910117
v 4.430008 0.046610 15.910117
v 3.630008 0.106610 15.110116
v 3.630008 0.046610 15.110116
v 3.630008 0.106610 15.910117
v 3.630008 0.046610 15.910117
vn -0.0000 1.0000 -0.0000
vn -0.0000 -0.0000 1.0000
vn -1.0000 -0.0000 -0.0000
vn -0.0000 -1.0000 -0.0000
vn 1.0000 -0.0000 -0.0000
vn -0.0000 -0.0000 -1.0000
vt 0.625000 0.500000
vt 0.875000 0.500000
vt 0.875000 0.750000
vt 0.625000 0.750000
vt 0.375000 0.750000
vt 0.625000 1.000000
vt 0.375000 1.000000
vt 0.375000 0.000000
vt 0.625000 0.000000
vt 0.625000 0.250000
vt 0.375000 0.250000
vt 0.125000 0.500000
vt 0.375000 0.500000
vt 0.125000 0.750000
s 0
usemtl Material.051
f 17/29/13 21/30/13 23/31/13 19/32/13
f 20/33/14 19/32/14 23/34/14 24/35/14
f 24/36/15 23/37/15 21/38/15 22/39/15
f 22/40/16 18/41/16 20/33/16 24/42/16
f 18/41/17 17/29/17 19/32/17 20/33/17
f 22/39/18 21/38/18 17/29/18 18/41/18
