# Blender 4.4.3
# www.blender.org
mtllib piso4.mtl
o Cube.016
v 5.000000 0.030000 -5.593459
v 5.000000 -0.030000 -5.593459
v 5.000000 0.030000 4.406541
v 5.000000 -0.030000 4.406541
v -5.000000 0.030000 -5.593459
v -5.000000 -0.030000 -5.593459
v -5.000000 0.030000 4.406541
v -5.000000 -0.030000 4.406541
v 4.164265 0.030000 -4.757724
v 4.164265 0.030000 3.570806
v -4.164265 0.030000 -4.757724
v -4.164265 0.030000 3.570806
v 5.000000 0.030000 -5.593459
v 5.000000 0.030000 4.406541
v -5.000000 0.030000 -5.593459
v -5.000000 0.030000 4.406541
v 4.164265 0.030000 -4.757724
v 4.164265 0.030000 3.570806
v -4.164265 0.030000 -4.757724
v -4.164265 0.030000 3.570806
vn -0.0000 -0.0000 -0.0000
vn -0.0000 -0.0000 1.0000
vn -1.0000 -0.0000 -0.0000
vn 1.0000 -0.0000 -0.0000
vn -0.0000 -0.0000 -1.0000
vn -0.0000 1.0000 -0.0000
vt 0.000000 0.000000
vt 0.375000 0.750000
vt 0.625000 0.750000
vt 0.625000 1.000000
vt 0.375000 1.000000
vt 0.375000 0.000000
vt 0.625000 0.000000
vt 0.625000 0.250000
vt 0.375000 0.250000
vt 0.375000 0.500000
vt 0.625000 0.500000
vt 0.854107 0.729107
vt 0.645893 0.729107
vt 0.645893 0.520893
vt 0.854107 0.520893
vt 0.875000 0.500000
vt 0.875000 0.750000
s 1
usemtl Material.018
f 5/1/1 7/1/1 16/1/1 15/1/1
f 4/2/2 3/3/2 7/4/2 8/5/2
f 8/6/3 7/7/3 5/8/3 6/9/3
f 2/10/4 1/11/4 3/3/4 4/2/4
f 6/9/5 5/8/5 1/11/5 2/10/5
f 12/12/1 10/13/1 18/13/1 20/12/1
f 3/1/1 1/1/1 13/1/1 14/1/1
f 7/4/1 3/3/1 14/3/1 16/4/1
f 1/11/1 5/8/1 15/8/1 13/11/1
f 9/14/6 10/13/6 14/3/6 13/11/6
f 11/15/6 9/14/6 13/11/6 15/16/6
f 12/12/6 11/15/6 15/16/6 16/17/6
f 10/13/6 12/12/6 16/17/6 14/3/6
f 9/14/1 11/15/1 19/15/1 17/14/1
f 11/15/1 12/12/1 20/12/1 19/15/1
f 10/13/1 9/14/1 17/14/1 18/13/1
